<svg xmlns="http://www.w3.org/2000/svg" viewBox="0 0 24 24" id="xcode">
  <path fill="#3B97CF" d="M18.4 17.26c-.2-.1-.6-.2-.9-.4-.3 1.2-.6 2.6-.9 4.1l6.3-1-2.1-14.1-.1.1c-.4.4-.9 1.7-1.9 5.5h.1l.3 1.6-.8.1c-.1.5-.2 1-.4 1.6 1.7.9.8 3.1.7 3.1-.1 0-.1 0-.1-.1s.1-.4-.2-.5z"></path>
  <path fill="#CFD8DC" d="M23.7 4.26c-.2.6-.5 1.3-.7 1.3-.3 0-1-.2-1.2-.5-.1-.2-.4-.5-.9-.5-.3 0-.5.2-.9.4-.62.49-1.39 2.71-2.14 5.43l-1.48-.25c.66-2.04 1.16-3.73 1.22-4.38 0-.3.1-1.7-.8-2.8-.6-.6-1.2-.8-1.8-.8-.5 0-1.1.2-1.5.2-.2 0-.5.1-.5.1s-.1 0-.1-.1c0-.16.31-.32.44-.38-.12.02-.36.08-.44.08-.1 0-.1-.1 0-.2.1 0 .4-.1.5-.2.4-.2.7-.3 1.1-.4.9-.3 1.9-.3 2.8-.2.6 0 1.3 0 1.9.2.6.2 1.2.4 1.7.9.3.3.7.6 1.1.6s.6-.1.7-.2c.2 0 1 .2 1.1.3.1.1.1.8-.1 1.4z"></path>
  <path fill="#3B97CF" d="M10.1 6.26c.3-.2.7-.2.9.1l3.8 4.4c.8-2.4 1.5-4.5 1.5-5.2.1-.2.1-.9-.2-1.6L0 6.46l2.6 16.7 8.6-1.4c-.1-.7 2.2-6.7 2.6-7.8l-4.4.7.6-1.8 3.1-.5.8 1s.2-.5.2-.7l-4.3-5.3c-.2-.3-.2-.7.1-.9l.2-.2zm-6 7.6 2.7-.5-.7 1.8-1.8.3-.2-1.6zm5.8-5.1.3.1c.4.1.5.5.4.9l-3 8-1.8 2.4.2-3 3-8c.1-.4.5-.5.9-.4z"></path>
  <path fill="#1F2228" d="M17.86 10.39c-1.39 5.12-2.69 12.01-2.76 12.47-.2.4-.6.7-1.7.4s-1.1-.8-.9-1.7c.14-.62 2.42-6.9 3.88-11.42l1.48.25z"></path>
</svg>
